<?xml version="1.0" encoding="utf-8"?>
<!-- Generator: Adobe Illustrator 25.2.1, SVG Export Plug-In . SVG Version: 6.00 Build 0)  -->
<svg version="1.1" id="Layer_1" xmlns="http://www.w3.org/2000/svg" xmlns:xlink="http://www.w3.org/1999/xlink" x="0px" y="0px"
	 viewBox="0 0 800 800" style="enable-background:new 0 0 800 800;" xml:space="preserve">
<style type="text/css">
	.st0{fill:none;}
	.st1{fill:#010101;}
</style>
<g>
	<path class="st0" d="M280.41,507.08c-6.39-11.65-15.19-20.09-23.61-22.46l-0.28-0.08c-0.8-0.3-1.65-0.55-2.59-0.8
		c-1.83-0.48-3.51-0.75-5.02-0.86c2.58,0.99,5.37,2.47,8.38,4.6c10.98,7.78,15.95,16.39,18.12,23.24
		C276.97,509.19,278.66,507.97,280.41,507.08z"/>
	<path class="st0" d="M274.23,475.38c-2.68,0.17-7.15,0.78-9.97,3.09c8.74,4.23,17.05,12.79,23.32,24.08
		c0.08-0.24,0.18-0.49,0.31-0.78c0.54-1.2,1.34-2.69,2.51-4.36C284.3,490.9,278.94,483.35,274.23,475.38z"/>
	<path class="st0" d="M252.39,494.36c-7.11-5.03-13.38-6.12-17.67-3.05c-3.88,2.78-5.65,8.52-4.72,14.59h0.01
		c9.12,0.85,17.94,2.67,26.24,5.3c2.99,0.96,5.92,2.02,8.76,3.2c1.03,0.42,2.02,0.85,3.02,1.31
		C266.8,510.18,263.1,501.96,252.39,494.36z"/>
	<path class="st0" d="M287.47,523.68c-0.3,0.45-0.63,0.92-0.99,1.35c0.65,0.35,1.3,0.69,1.93,1.04c5.87,3.2,11.49,6.32,16.94,9.22
		c-0.1-0.2-0.2-0.38-0.3-0.58c-1.27-2.61-2.5-5.6-3.38-8.97C297.57,523.37,292.25,523.24,287.47,523.68z"/>
	<path class="st0" d="M293.45,251.51c10.17-7.4,20.43-14.76,30.92-21.81c10.49-7.05,21.22-13.82,32.31-20.04
		c11.08-6.22,22.59-11.82,34.58-16.39c5.15-1.95,10.38-3.71,15.71-5.2c-4.82,0.18-9.98,0.58-15.43,1.25
		c-29.29,3.65-72.82,16.58-114.87,57.24c1.04,6.16,1.83,11.49,2.38,15.4C283.85,258.52,288.64,254.99,293.45,251.51z"/>
	<path class="st0" d="M282.38,410.42c-3.29-12.97-6.39-25.23-9.55-34.2c-4.41-12.55-7.06-13.2-7.18-13.21
		c-10.21,2.38-10.91,28.2-9.67,40.34l0.28,2.71c2.48,10.1,9.5,35.69,21.93,58.99c1.11-9.69,4.23-16.4,9.25-19.9
		c1.28-0.9,2.57-1.49,3.77-1.88C287.99,432.54,285.12,421.22,282.38,410.42z"/>
	<path class="st0" d="M208.08,470.36c3.09,1.95,2.16,4.92,0.62,9.86c-3.17,10.12-4.05,16.12-2.62,17.78c0.2,0.24,0.8,0.35,1.61,0.3
		c0.27-0.62,0.56-1.21,0.92-1.76c0.38-0.71,0.85-1.34,1.28-1.95c0.89-1.18,1.79-2.19,2.61-3c1.54-1.51,2.71-2.38,2.85-2.48
		c-0.1,0.14-0.89,1.37-1.76,3.24c-0.47,1-0.94,2.19-1.31,3.47c-0.17,0.63-0.37,1.28-0.47,1.96c-0.14,0.66-0.17,1.33-0.2,1.97
		c-0.07,0.63,0.07,1.26,0.08,1.83c0.18,0.55,0.23,1.11,0.47,1.55c0.25,0.44,0.37,0.89,0.69,1.2c0.28,0.32,0.45,0.65,0.79,0.87
		c0.1,0.07,0.18,0.14,0.27,0.21c1.3-0.04,2.59-0.07,3.89-0.07c1.21,0,2.43,0.01,3.62,0.06c-0.72-7.5,1.54-14.55,6.2-19.14
		c2.59-6.13,11.13-15,28.05-10.83c3.34-5.2,9.33-7.26,14.12-8.07c-5.78-11.08-14.09-32.01-14.09-32.01
		c-2.55-1.14-24.9-11.37-31.36-18.7c-0.63,0.62-1.59,2.13-1.89,4.41c-0.31,2.44,0,7.16,5.58,11.25c1.86,1.37,5.74,4.2,4.78,8.26
		c-0.96,4.1-5.26,4.86-11.21,5.89c-11.31,1.96-21.69,4.6-24.49,15.03c-2.72,10.12-0.97,12.34-0.96,12.37
		c0.79,0.35,4.17-0.86,6.22-2.76C204.43,469.2,206.67,469.47,208.08,470.36z"/>
	<path class="st0" d="M286.98,513.09c-1.54,0.13-3.19,1.61-4.55,2.67c5.05-0.72,11.72-1.37,17.98,0.37c0-0.49,0.11-2.28,0.14-2.77
		C296.06,512.67,290.82,512.8,286.98,513.09z"/>
	<path class="st0" d="M396.59,592.36c-2.09,0.38-4.19,0.82-6.25,1.14c-8.21,1.3-16.47,1.86-24.68,1.9
		c-5.74,0.03-11.44-0.2-17.1-0.61c1.75,11.34,3.71,32.52-3.06,46.41c38.03-8.73,53.87-37.13,59.44-50.92l-2.45,0.69
		C400.51,591.45,398.59,591.92,396.59,592.36z"/>
	<path class="st0" d="M309.87,506.43c0,0.01,0,0.01-0.01,0.02l-0.03,0.03v0.01c0,0.01-0.01,0.03-0.01,0.04l-0.01,0.07l-0.07,0.2
		l-0.13,0.41l-0.27,0.82c-1.3,4.34-1.37,8.67-0.68,12.59c0.71,3.93,2.12,7.45,3.65,10.42c1.55,2.99,3.23,5.44,4.71,7.37
		c1.49,1.95,2.78,3.37,3.67,4.3c0.18,0.2,0.35,0.37,0.51,0.52c6.71,3.12,13.18,5.7,19.39,7.54c7.6,2.27,14.78,3.53,21.31,3.82
		c4.46-9.07,5.5-17.7,3.12-25.68c-2.86-9.63-10.72-18.12-22.7-24.59c-14.93-8.05-23.79-6.26-28.44-2.97
		C312.09,502.62,310.76,504.43,309.87,506.43z"/>
	<path class="st0" d="M424.05,416.53c5.01,0,9.65,2.02,13.59,5.58c-13.11-47.21-44.24-96.23-65.19-96.83
		c-6.87-0.2-12.97,2.81-18.37,8.94c-12.45,14.16-18.63,42.59-14.69,67.6c5.32,33.8,22.76,71.45,23.92,73.92
		c3.2,1.2,6.4,2.55,9.6,3.98c9.1,4.03,18.36,8.95,28.26,12.66c4.91,1.79,10.1,3.27,14.92,3.19c0.07,0,0.16,0,0.23-0.01
		c-10.94-4.92-18.7-20.16-18.7-38.67C397.61,434.26,409.22,416.53,424.05,416.53z"/>
	<path class="st0" d="M371.44,554.39c0.61-0.62,1.27-1.34,1.95-2.2c1.52-1.89,3.17-4.4,4.61-7.52c0.72-1.57,1.37-3.27,1.93-5.1
		c0.54-1.85,0.99-3.81,1.28-5.89c0.52-4.15,0.42-8.74-0.82-13.34c-1.17-4.61-3.51-9.17-6.78-13.26c-0.38-0.54-0.86-1-1.28-1.51
		c-0.44-0.49-0.87-1.02-1.34-1.45l-1.37-1.38l-1.61-1.44l-0.78-0.69l-0.03-0.01l-0.04-0.04l-0.11-0.08l-0.2-0.16l-0.42-0.32
		l-1.66-1.27c-1.11-0.83-2.19-1.76-3.4-2.47c-1.18-0.75-2.38-1.49-3.58-2.26c-1.24-0.62-2.5-1.25-3.76-1.89
		c-0.31-0.16-0.62-0.32-0.94-0.48l-0.97-0.37l-1.97-0.75c-0.65-0.24-1.28-0.55-1.97-0.72l-2.02-0.52
		c-5.37-1.41-10.97-1.68-16.13-0.54c-2.19,0.48-4.29,1.2-6.23,2.14c6.13-0.2,13.69,1.24,22.55,6.01c14,7.56,23.27,17.8,26.79,29.61
		c2.67,8.9,2.03,18.26-1.88,27.91C371.32,554.4,371.39,554.4,371.44,554.39z"/>
	<path class="st0" d="M507.52,416.41c-0.99-2.96-2.48-5.33-4.36-6.46l-0.3-0.18c-0.01-0.01-0.03-0.01-0.04-0.03
		c0,0-0.01,0-0.03-0.01l-0.01-0.01l-0.49-0.27c-0.32-0.18-0.68-0.32-1.02-0.49c-0.69-0.31-1.38-0.61-2.09-0.83
		c-1.42-0.48-2.89-0.83-4.4-1c-6.01-0.72-12.35,1.07-17.95,4.15c-5.61,3.1-10.58,7.45-14.52,12.39c-3.93,4.94-6.91,10.66-8.16,16.27
		c-0.07,0.32-0.16,0.8-0.24,1.18l-0.21,1.16l-0.44,2.45c-0.28,1.64-0.58,3.27-0.86,4.89c-0.58,3.27-1.16,6.53-1.8,9.77
		c-0.07,0.32-0.13,0.65-0.2,0.97c0,0.01,0,0.01,0,0.03c-0.59,11.06-3.98,20.71-9.12,27.36c-1.71,2.93-3.75,5.73-6.25,8.19
		c-1.26,1.2-2.59,2.34-4.05,3.33c-0.73,0.49-1.47,0.97-2.24,1.38c-0.72,0.44-1.58,0.83-2.44,1.23l-0.63,0.28l-0.52,0.2l-1.03,0.38
		c-1.03,0.38-1.79,0.56-2.69,0.78c-1.75,0.39-3.5,0.56-5.18,0.58c-6.8,0.01-12.62-1.88-17.99-3.85c-10.7-4.12-19.87-9.12-28.7-13.1
		c-8.76-3.99-17.13-7.21-24.85-8.12c-7.54-0.92-14.64,1-20.76,3.58c-6.13,2.59-11.31,5.84-15.65,8.84
		c-4.39,2.98-7.74,6.04-10.82,8.09c-3.06,2.09-5.71,3.43-7.61,4.24c-0.51,0.21-0.96,0.39-1.34,0.54c0.17,0.31,0.34,0.63,0.49,0.96
		c4.05-0.06,8.74,0.38,12.86,1c0.04-0.17,0.1-0.35,0.16-0.52l0.37-1.03l0.17-0.52l0.1-0.25l0.04-0.13l0.03-0.07l0.11-0.28
		c0.28-0.59,0.55-1.18,0.83-1.79c0.28-0.61,0.56-1.2,0.85-1.8c0.23-0.55,0.68-1.2,1.03-1.79c0,0,2.03-3.21,2.83-4.08
		c1-1.18,1.95-2.44,3.17-3.44c4.57-4.36,10.59-7.46,17.01-8.71c6.42-1.28,13.11-0.79,19.3,0.94l2.33,0.66
		c0.79,0.21,1.49,0.56,2.26,0.85l2.21,0.9l1.11,0.45c0.35,0.17,0.71,0.37,1.06,0.55c1.4,0.73,2.79,1.47,4.19,2.2
		c1.31,0.86,2.61,1.72,3.91,2.58c1.34,0.8,2.5,1.82,3.69,2.76l1.79,1.42l0.96,0.78l0.8,0.75l1.59,1.48l1.64,1.69
		c0.55,0.55,1.03,1.14,1.52,1.72c0.48,0.58,1,1.13,1.42,1.75c3.68,4.77,6.35,10.15,7.61,15.58c1.35,5.41,1.35,10.77,0.66,15.53
		c-0.38,2.38-0.93,4.63-1.58,6.71c-0.69,2.07-1.45,4-2.3,5.75c-1.2,2.47-2.51,4.61-3.82,6.4c0.42-0.07,0.85-0.17,1.26-0.25
		c5.06-1.16,9.33-2.4,12.92-3.3c3.57-0.93,6.4-1.65,8.38-2.04c1.96-0.45,3.05-0.58,3.05-0.58s-0.65,0.87-2.09,2.33
		c-1.47,1.44-3.75,3.44-7.12,5.49c-3.37,2.03-7.85,4.05-13.45,5.36c-5.58,1.37-12.2,2.31-19.6,2.21c-7.4-0.1-15.58-1.23-24.04-3.65
		c-8.49-2.38-17.27-5.92-26.27-10.24c-8.98-4.34-18.18-9.46-27.81-14.67c-4.82-2.59-9.77-5.2-14.86-7.67
		c-1.3-0.61-2.58-1.23-3.89-1.83c-1.23-0.56-2.55-1.14-3.85-1.68c-2.62-1.07-5.32-2.06-8.07-2.96c-11.03-3.58-23.15-5.61-35.69-5.65
		c-6.27-0.03-12.65,0.47-18.95,1.62c-3.13,0.59-6.26,1.34-9.28,2.33c-3,0.99-5.94,2.23-8.42,3.78c-1.25,0.78-2.37,1.65-3.19,2.52
		c-0.86,0.92-1.27,1.69-1.42,2.45c-0.11,0.82-0.1,1.57,0.37,2.54c0.42,0.96,1.2,2.03,2.21,3.05c2.03,2.04,4.78,3.89,7.69,5.51
		c2.93,1.62,6.08,3.06,9.32,4.34l2.44,0.93c0.24,0.08,1.31,0.47,2.04,0.96c0.78,0.48,1.48,1.1,2.04,1.79
		c1.16,1.41,1.82,3.13,1.95,4.86c0.01,0.24,0.03,0.52,0.03,0.79l-0.01,0.41l-0.04,0.69c0,0.32-0.01,0.65,0.01,0.94
		c0.13,2.47,1.3,4.48,3.58,6.28c2.27,1.76,5.36,3.07,8.63,4.05c3.29,0.97,6.8,1.64,10.36,2.1c3.58,0.48,7.25,0.75,10.96,0.9
		c1.85,0.08,3.71,0.13,5.57,0.14c0.96,0.01,1.78-0.01,2.96,0.04c1.14,0.03,2.19,0.14,3.22,0.25c4.12,0.49,7.94,1.31,11.77,2.13
		c3.84,0.85,7.61,1.75,11.41,2.65c15.12,3.65,30.29,7.28,45.74,9.96c15.44,2.67,31.14,4.47,46.82,4.36
		c7.83-0.06,15.65-0.61,23.32-1.83c1.9-0.31,3.75-0.71,5.63-1.04c1.92-0.42,3.91-0.92,5.85-1.38l5.56-1.58
		c1.86-0.61,3.74-1.16,5.58-1.82c7.4-2.54,14.61-5.63,21.53-9.24c6.87-3.68,13.49-7.81,19.63-12.56
		c12.32-9.42,22.89-20.98,31.21-33.89c2.09-3.22,4.06-6.56,5.85-9.84c1.61-3.13,3.05-6.75,4.39-10.32
		c2.67-7.19,4.95-14.57,6.99-21.93c2.03-7.39,3.78-14.79,5.19-22.18c1.4-7.37,2.47-14.76,2.89-22.01c0.21-3.62,0.24-7.22,0.01-10.7
		C509,422.77,508.51,419.36,507.52,416.41z M498.31,425.98c-0.16,0.2-0.37,0.55-0.66,0.89c-0.59,0.75-1.42,1.75-2.48,2.78
		c-1.03,1.06-2.28,2.14-3.64,3.2c-0.69,0.52-1.4,1.03-2.12,1.54c-0.14,0.1-0.3,0.2-0.44,0.3c-0.01,0.39-0.04,0.82-0.07,1.28
		c-0.21,2.74-0.59,6.73-1.33,11.76c-0.71,5.03-1.82,11.11-3.47,17.99c-1.66,6.9-3.88,14.59-6.91,22.8
		c-3.02,8.21-6.91,16.92-11.97,25.64c-5.12,8.69-11.3,17.49-18.98,25.48c-7.64,8.01-16.65,15.31-26.74,21.19
		c-1.28,0.68-2.57,1.38-3.85,2.07l-1.93,1.03l-0.97,0.52l-1.13,0.51l-3.86,1.73l-1.95,0.86l-2.14,0.78l-4.31,1.55
		c-1.44,0.49-2.86,0.82-4.3,1.24c-1.45,0.35-2.88,0.85-4.34,1.1l-4.39,0.86c-1.47,0.32-2.95,0.48-4.43,0.65l-4.43,0.52l-4.43,0.23
		l-2.23,0.11c-0.73,0.03-1.47,0-2.2,0l-4.41-0.04c-1.47-0.04-2.92-0.18-4.39-0.25c-2.92-0.14-5.78-0.52-8.66-0.86
		c-11.45-1.45-22.36-4.26-32.71-7.3c-10.34-3.1-20.12-6.54-29.34-9.73c-9.22-3.2-17.92-6.13-26-8.46
		c-8.09-2.33-15.57-3.96-22.21-5.13c-6.66-1.17-12.49-1.61-17.36-1.76c-2.41,0-4.61-0.07-6.5,0.1c-1.9,0.13-3.55,0.14-4.86,0.37
		c-2.64,0.34-4.1,0.45-4.1,0.45s1.27-0.65,3.78-1.73c1.23-0.62,2.83-1.09,4.74-1.66c1.89-0.69,4.13-1.06,6.66-1.54
		c5.06-0.79,11.37-1.24,18.47-0.55c7.11,0.63,14.95,2.3,23.31,4.53c8.36,2.21,17.23,5.03,26.54,8.05
		c9.32,3.02,19.06,6.22,29.22,9.05c10.14,2.81,20.67,5.37,31.47,6.6c2.71,0.27,5.41,0.61,8.12,0.69c1.37,0.06,2.72,0.18,4.08,0.18
		l4.09-0.01c0.68,0,1.35,0.01,2.03-0.01l2.03-0.13l4.08-0.27l4.03-0.52c1.34-0.17,2.69-0.32,4-0.63l3.98-0.79
		c1.34-0.24,2.61-0.69,3.92-1.03c1.28-0.38,2.64-0.68,3.86-1.11l3.71-1.33l1.85-0.66l1.93-0.86l3.85-1.75l0.8-0.35l0.89-0.49
		l5.33-2.88c9.26-5.44,17.51-12.17,24.56-19.6c7.11-7.4,12.83-15.62,17.61-23.77c4.78-8.16,8.59-16.34,11.52-24.13
		c5.92-15.55,8.76-29.29,10.36-38.86c0.42-2.55,0.75-4.81,0.99-6.75c-0.49,0.24-0.99,0.44-1.45,0.62c-0.63,0.28-1.24,0.54-1.82,0.75
		c-0.59,0.2-1.07,0.42-1.51,0.58c-0.41,0.18-0.8,0.28-1.06,0.38c-0.27,0.08-0.41,0.13-0.41,0.13s0-0.14,0.01-0.41
		c0.03-0.25,0.03-0.66,0.13-1.13c0.1-0.48,0.16-1.11,0.39-1.72c0.21-0.63,0.48-1.33,0.82-2.07c0.38-0.71,0.82-1.44,1.33-2.21
		c0.54-0.73,1.14-1.45,1.79-2.17c0.68-0.69,1.41-1.37,2.19-2.02c0.79-0.61,1.61-1.21,2.47-1.73c1.72-1.04,3.55-1.88,5.34-2.43
		c1.79-0.58,3.54-0.89,5.09-1c1.55-0.11,2.88-0.03,3.84,0.13c0.47,0.04,0.87,0.16,1.13,0.21c0.25,0.06,0.39,0.1,0.39,0.1
		S498.47,425.76,498.31,425.98z"/>
	<path class="st1" d="M497.03,425.32c-0.96-0.16-2.28-0.24-3.84-0.13c-1.55,0.11-3.3,0.42-5.09,1c-1.79,0.55-3.62,1.38-5.34,2.43
		c-0.86,0.52-1.68,1.13-2.47,1.73c-0.78,0.65-1.51,1.33-2.19,2.02c-0.65,0.72-1.26,1.44-1.79,2.17c-0.51,0.78-0.94,1.51-1.33,2.21
		c-0.34,0.75-0.61,1.44-0.82,2.07c-0.24,0.61-0.3,1.24-0.39,1.72c-0.1,0.47-0.1,0.87-0.13,1.13c-0.01,0.27-0.01,0.41-0.01,0.41
		s0.14-0.04,0.41-0.13c0.25-0.1,0.65-0.2,1.06-0.38c0.44-0.16,0.92-0.38,1.51-0.58c0.58-0.21,1.18-0.47,1.82-0.75
		c0.47-0.18,0.96-0.38,1.45-0.62c-0.24,1.95-0.56,4.2-0.99,6.75c-1.61,9.57-4.44,23.31-10.36,38.86
		c-2.93,7.78-6.74,15.96-11.52,24.13c-4.78,8.15-10.51,16.37-17.61,23.77c-7.05,7.43-15.3,14.16-24.56,19.6l-5.33,2.88l-0.89,0.49
		l-0.8,0.35l-3.85,1.75l-1.93,0.86l-1.85,0.66l-3.71,1.33c-1.23,0.44-2.58,0.73-3.86,1.11c-1.31,0.34-2.58,0.79-3.92,1.03
		l-3.98,0.79c-1.31,0.31-2.67,0.47-4,0.63l-4.03,0.52l-4.08,0.27l-2.03,0.13c-0.68,0.03-1.35,0.01-2.03,0.01l-4.09,0.01
		c-1.35,0-2.71-0.13-4.08-0.18c-2.71-0.08-5.41-0.42-8.12-0.69c-10.8-1.23-21.34-3.79-31.47-6.6c-10.15-2.83-19.9-6.04-29.22-9.05
		c-9.31-3.02-18.18-5.84-26.54-8.05c-8.36-2.23-16.2-3.89-23.31-4.53c-7.11-0.69-13.41-0.24-18.47,0.55
		c-2.52,0.48-4.77,0.85-6.66,1.54c-1.9,0.58-3.51,1.04-4.74,1.66c-2.51,1.09-3.78,1.73-3.78,1.73s1.47-0.11,4.1-0.45
		c1.31-0.23,2.96-0.24,4.86-0.37c1.89-0.17,4.09-0.1,6.5-0.1c4.86,0.16,10.7,0.59,17.36,1.76c6.64,1.17,14.12,2.81,22.21,5.13
		c8.08,2.33,16.78,5.26,26,8.46c9.22,3.19,19.01,6.63,29.34,9.73c10.35,3.05,21.26,5.85,32.71,7.3c2.88,0.34,5.74,0.72,8.66,0.86
		c1.47,0.07,2.92,0.21,4.39,0.25l4.41,0.04c0.73,0,1.47,0.03,2.2,0l2.23-0.11l4.43-0.23l4.43-0.52c1.48-0.17,2.96-0.32,4.43-0.65
		l4.39-0.86c1.47-0.25,2.89-0.75,4.34-1.1c1.44-0.42,2.86-0.75,4.3-1.24l4.31-1.55l2.14-0.78l1.95-0.86l3.86-1.73l1.13-0.51
		l0.97-0.52l1.93-1.03c1.28-0.69,2.57-1.4,3.85-2.07c10.08-5.88,19.09-13.18,26.74-21.19c7.69-8,13.86-16.79,18.98-25.48
		c5.06-8.71,8.95-17.43,11.97-25.64c3.03-8.21,5.25-15.91,6.91-22.8c1.65-6.88,2.76-12.96,3.47-17.99
		c0.73-5.03,1.11-9.02,1.33-11.76c0.03-0.47,0.06-0.89,0.07-1.28c0.14-0.1,0.3-0.2,0.44-0.3c0.72-0.51,1.42-1.02,2.12-1.54
		c1.35-1.06,2.61-2.14,3.64-3.2c1.06-1.03,1.89-2.03,2.48-2.78c0.3-0.34,0.51-0.69,0.66-0.89c0.16-0.23,0.24-0.35,0.24-0.35
		s-0.14-0.04-0.39-0.1C497.9,425.48,497.49,425.36,497.03,425.32z"/>
	<path class="st1" d="M631.89,451.34c-0.23-2.35-0.68-4.63-1.26-6.87c-1.16-4.47-2.9-8.78-4.96-13c-2.06-4.22-4.47-8.32-7.23-12.17
		c-1.35-1.86-2.95-3.95-4.33-5.58c-0.79-0.94-1.69-1.89-2.55-2.82c-0.93-0.85-1.8-1.76-2.78-2.52c-1.89-1.64-3.92-2.99-5.95-4.26
		c-2.04-1.2-4.13-2.26-6.22-3.16c-4.16-1.82-8.29-3.12-12.23-4.09c-0.99-0.24-1.96-0.45-2.92-0.66c-0.69-0.14-1.37-0.28-2.04-0.41
		c-0.41-0.07-0.8-0.16-1.2-0.23c-1.2-0.21-2.35-0.39-3.5-0.54h-0.01c0.2-0.21,0.39-0.42,0.58-0.65c0.59-0.66,1.18-1.38,1.76-2.13
		c2.57-3.34,5.08-7.45,7.29-12.03c1.1-2.28,2.14-4.7,3.07-7.21c0.93-2.54,1.78-5.12,2.37-8.02c0.14-0.73,0.27-1.48,0.34-2.34
		c0.04-0.44,0.07-0.89,0.06-1.44c-0.03-0.58-0.01-1.14-0.35-2.2c-0.13-0.34-0.24-0.61-0.44-0.96c-0.28-0.44-0.47-0.76-1.02-1.24
		c-0.47-0.42-1.11-0.79-1.83-1c-0.65-0.17-1.31-0.21-1.92-0.13c-0.3,0.04-0.59,0.11-0.89,0.2c-0.39,0.14-0.24,0.1-0.34,0.13
		l-0.52,0.23l-0.31,0.13c-0.37,0.18-0.93,0.38-1.48,0.58c-1.34,0.48-2.74,0.93-4.13,1.37c0.14-0.14,0.28-0.3,0.41-0.45
		c0.42-0.45,0.82-0.92,1.21-1.4c0.18-0.21,0.35-0.41,0.51-0.62c0.37-0.44,0.72-0.87,1.06-1.33c0.11-0.16,0.24-0.3,0.35-0.47
		c0.47-0.62,0.93-1.25,1.37-1.9c1.03-1.33,1.86-2.92,2.72-4.46l1.27-2.33l0.93-2.17l0.92-2.17l0.23-0.55l0.11-0.27
		c0.18-0.48,0.08-0.21,0.14-0.37l0.04-0.14l0.38-1.18c0.48-1.59,1.03-3.16,1.4-4.78c1.66-6.42,2.51-13,2.71-19.56
		c0.35-13.14-1.85-26.19-6.12-38.55c-0.56-1.54-1.17-3.16-1.78-4.65l-0.93-2.17l-0.45-1.09l-0.58-1.17l-2.13-4.4
		c-0.75-1.44-1.57-2.85-2.35-4.27l-1.18-2.14l-1.31-2.06c-0.89-1.37-1.73-2.76-2.65-4.12c-1.96-2.61-3.75-5.34-5.92-7.78
		c-8.29-10.08-18.25-18.68-29.05-25.75c-0.89-0.59-1.79-1.16-2.69-1.72c-0.9-0.56-1.8-1.1-2.72-1.65v-0.01
		c-0.03-0.99-0.01-2.09,0.04-3.27c0.01-0.38,0.04-0.78,0.08-1.2c0.03-0.42,0.07-0.85,0.11-1.28c0.1-1.04,0.23-2.13,0.39-3.29
		c0.23-1.73,0.55-3.6,0.93-5.58c0.06-0.32,0.13-0.66,0.2-1c0.45-2.38,1.02-4.91,1.66-7.59c0.34-1.44,0.72-2.92,1.11-4.44
		c2.38-9.24,5.68-19.97,9.77-31.8c2.62-7.59,1.65-15.86-2.68-22.73c-20.95-33.21-54.5-55.53-97.03-64.55
		C384.29,52.49,318.8,70.96,284.68,93.8c-33.29,22.28-49.03,39.02-51.03,54.29c-1.59,12.17,5.58,21.5,13.07,30.04
		c0.99,1.13,1.96,2.5,2.9,4.06c0.17,0.28,0.35,0.58,0.52,0.87c0.76,1.34,1.51,2.81,2.24,4.39c0.18,0.39,0.37,0.79,0.54,1.18
		c0.54,1.2,1.06,2.45,1.57,3.77c0.16,0.39,0.31,0.79,0.47,1.2c0.47,1.23,0.92,2.48,1.37,3.78c0.17,0.49,0.34,0.99,0.51,1.49
		c0.75,2.24,1.48,4.58,2.17,6.99c0.25,0.82,0.49,1.66,0.72,2.5c0.52,1.85,1.02,3.74,1.51,5.64c0.2,0.76,0.39,1.54,0.59,2.31
		c0.06,0.28,0.13,0.56,0.2,0.85c0.49,2.02,0.97,4.06,1.45,6.12c0.11,0.56,0.24,1.13,0.37,1.68c0.11,0.48,0.21,0.94,0.31,1.42
		c0.99,4.55,1.9,9.1,2.72,13.49c0.11,0.54,0.21,1.07,0.3,1.61c0.2,1.07,0.39,2.14,0.58,3.19c0.17,0.93,0.32,1.85,0.48,2.76
		c0.2,1.13,0.38,2.26,0.56,3.36c0.17,0.96,0.32,1.9,0.47,2.82c0.54,3.38,1,6.54,1.4,9.38c0.07,0.41,0.13,0.8,0.17,1.18
		c0.07,0.49,0.14,0.97,0.2,1.45c0.08,0.63,0.17,1.24,0.24,1.82c0,0.01,0,0.03,0,0.03c-0.39,0.27-0.79,0.55-1.18,0.82
		c-0.79,0.55-1.58,1.09-2.37,1.61c-1.61,1.1-3.22,2.17-4.84,3.22c-1.3,0.8-2.59,1.68-3.89,2.41c-1.3,0.73-2.65,1.58-3.85,2.14
		l-1.85,0.96l-2.19,0.89l-0.54,0.23l-0.16,0.06c0,0-0.01,0-0.03,0.01c-0.01,0-0.03,0.01-0.04,0.01l-0.04,0.01h-0.01v0.01
		c-0.01,0-0.01,0-0.01,0l-0.06,0.01l-1.07,0.31L247,280.8c-5.7,1.59-11.63,2.44-17.61,2.54s-12-0.54-17.91-1.76
		c-2.93-0.63-5.88-1.33-8.76-2.26c-2.48-0.76-5.06-1.68-7.35-2.67c-0.28-0.11-0.56-0.24-0.83-0.35c-0.01-0.01-0.03-0.03-0.03-0.03
		l-0.04-0.01c-0.03-0.01-0.04-0.03-0.06-0.03c-0.63-0.35-1.23-0.66-1.8-0.93c-0.68-0.32-1.35-0.62-2.06-0.92
		c-1.4-0.58-2.83-1.07-4.39-1.45c-1.54-0.38-3.17-0.65-4.98-0.61c-1.78,0.03-3.82,0.39-5.71,1.55c-1.89,1.14-3.29,3-4,4.77
		c-0.73,1.78-1.03,3.51-1.13,5.12c-0.06,0.8-0.06,1.72-0.04,2.47l0.04,1.02l0.03,0.51l0.03,0.25l0.01,0.14l0.03,0.27
		c0.14,1.49,0.37,2.93,0.63,4.36c0.54,2.85,1.31,5.6,2.17,8.29c0.86,2.69,1.88,5.33,2.99,7.91c1.09,2.59,2.35,5.12,3.64,7.6
		c1.35,2.47,2.75,4.91,4.29,7.26c1.51,2.37,3.17,4.64,4.89,6.88c1.76,2.2,3.58,4.36,5.56,6.39c0.99,1.02,1.97,2.04,3.03,2.99
		c1.03,0.99,2.1,1.9,3.2,2.82c2.17,1.83,4.51,3.48,6.91,5.05c2.44,1.49,4.95,2.92,7.59,4.06l1.97,0.86
		c0.66,0.28,1.35,0.51,2.03,0.75c1.34,0.52,2.74,0.93,4.12,1.31c2.78,0.78,5.63,1.27,8.49,1.61c0.94,0.11,1.92,0.17,2.89,0.21
		c0.14,0.01,0.28,0.03,0.42,0.03c0.34,0.03,0.66,0.04,0.99,0.07c0,0.65,0.01,1.28,0.04,1.93c0,0.54,0.03,1.06,0.06,1.57
		c0.03,0.52,0.06,1.04,0.08,1.55c0.03,0.55,0.07,1.09,0.11,1.62v0.08c0.04,0.48,0.08,0.97,0.13,1.44c0.01,0.23,0.04,0.44,0.07,0.65
		c0.07,0.71,0.16,1.41,0.24,2.12c0.07,0.61,0.16,1.23,0.25,1.82c0.1,0.69,0.21,1.37,0.34,2.03c0,0.07,0.01,0.14,0.03,0.21
		c0.13,0.68,0.25,1.34,0.39,1.99c0.16,0.75,0.31,1.47,0.48,2.19c0.16,0.71,0.31,1.41,0.47,2.09c1.41,6.13,2.78,11.07,4.03,14.98
		c0.13,0.44,0.27,0.86,0.41,1.27c0.34,1.03,0.66,1.99,0.99,2.86c0.08,0.25,0.18,0.49,0.27,0.73c0.93,2.58,1.75,4.46,2.35,5.74
		c0.01,0.01,0.01,0.03,0.03,0.03c0,0.01,0,0.03,0,0.03c0.01,0.01,0.01,0.01,0.01,0.03c0,0.01,0,0.01,0.01,0.03
		c0.01,0.13,0.06,0.28,0.1,0.47c0.03,0.18,0.08,0.37,0.13,0.59c0.03,0.11,0.06,0.23,0.08,0.35c0.24,1.1,0.61,2.64,1.09,4.54
		c0.1,0.44,0.21,0.89,0.34,1.35c0.11,0.48,0.24,0.96,0.38,1.47c0.2,0.75,0.41,1.55,0.63,2.38c0.75,2.81,1.66,6.01,2.75,9.52
		c-1.09-0.54-2.19-1.09-3.3-1.65c-1.79-0.92-3.61-1.89-5.37-2.86c-0.35-0.18-0.69-0.38-1.04-0.58c-0.35-0.2-0.69-0.39-1.03-0.58
		c-0.68-0.39-1.35-0.78-2-1.17c-0.93-0.55-1.82-1.1-2.67-1.64c-0.28-0.17-0.55-0.34-0.8-0.52c-1.31-0.85-2.48-1.66-3.45-2.44
		c-0.23-0.17-0.44-0.34-0.63-0.52c-0.69-0.56-1.24-1.1-1.65-1.59c-2.06-2.5-5.03-3.53-7.97-2.79c-4.03,1.03-7.32,5.22-8.38,10.66
		c-1.37,7.02,1.33,14.03,7.22,19.09c-0.45,0.08-0.9,0.17-1.33,0.24c-9.36,1.62-26.76,4.65-31.21,21.17
		c-1.16,4.27-4.65,17.29,2.82,21.8c2.3,1.38,4.96,1.48,7.53,0.9c-2.14,7.42-3.95,16.44,0.35,21.48c0.34,0.39,0.73,0.79,1.2,1.17
		c0.16,0.11,0.31,0.23,0.48,0.34c0.17,0.13,0.35,0.24,0.54,0.35c0.28,0.17,0.56,0.32,0.89,0.47c0.32,0.14,0.66,0.27,1.02,0.38
		c-0.01,0.01-0.01,0.01-0.01,0.01c-0.45,0.04-0.89,0.1-1.33,0.17c-0.55,0.07-1.1,0.14-1.64,0.24c-0.08,0-0.18,0.01-0.27,0.04
		c-0.38,0.06-0.76,0.11-1.14,0.18c-0.72,0.11-1.42,0.24-2.14,0.37c-3.45,0.66-6.94,1.51-10.39,2.67c-3.47,1.17-6.92,2.59-10.31,4.71
		c-1.68,1.06-3.36,2.31-4.91,3.98c-1.54,1.62-3,3.93-3.53,6.63c-0.52,2.62-0.1,5.54,0.97,7.76c1.04,2.26,2.47,4.03,3.95,5.53
		c3,2.98,6.3,5.08,9.66,6.95c3.36,1.85,6.81,3.4,10.32,4.78c0.87,0.34,1.79,0.68,2.67,1c0.38,0.14,0.44,0.16,0.44,0.16
		c0.01,0,0.04,0.06,0.06,0.13c-0.01,0.06-0.01,0.14-0.01,0.2l-0.04,0.69c-0.01,0.59-0.03,1.18,0.01,1.79
		c0.13,2.43,0.83,4.95,2.09,7.12c1.24,2.17,2.93,3.95,4.72,5.36c3.61,2.79,7.54,4.34,11.42,5.53c3.89,1.16,7.78,1.89,11.69,2.41
		c3.89,0.52,7.8,0.82,11.7,0.99c1.95,0.08,3.91,0.14,5.85,0.17c0.94,0.01,2.04-0.01,2.78,0.04c0.78,0.01,1.64,0.1,2.5,0.2
		c3.5,0.42,7.22,1.21,10.91,2.02c3.71,0.82,7.46,1.72,11.22,2.64c15.07,3.68,30.49,7.4,46.28,10.17c0.97,0.17,1.93,0.34,2.9,0.49
		c0.78,0.13,1.55,0.25,2.31,0.38c2.62,0.42,5.26,0.82,7.9,1.18c1.33,0.18,2.64,0.35,3.96,0.52c-0.06,0.04-0.13,0.08-0.2,0.14
		c-3.62,2.3-8.22,5.33-13.26,8.88c-0.49,0.35-0.99,0.71-1.49,1.06c-4.02,2.85-8.28,6.02-12.54,9.42c-0.59,0.48-1.17,0.94-1.75,1.42
		c-1.28,1.04-2.57,2.1-3.84,3.17c-1.26,1.07-2.51,2.17-3.75,3.29c-0.62,0.55-1.23,1.11-1.83,1.66c-0.83,0.76-1.68,1.55-2.5,2.34
		c-0.78,0.75-1.54,1.49-2.3,2.26c-0.75,0.75-1.48,1.51-2.2,2.27c-1.66,1.73-3.24,3.5-4.71,5.27c-0.49,0.58-0.97,1.17-1.44,1.76
		c-0.93,1.18-1.82,2.37-2.65,3.55c-4.78,6.82-28.19,41.46-19.85,52.92c1.68,2.31,5.09,4.63,11.87,2.55
		c5.18-1.59,11.13-4.72,16.86-7.76c8.6-4.55,19.3-10.21,23.85-7.98c1.57,0.76,2.65,2.81,3.23,6.09c0.99,5.47,1.25,11.73,1.52,17.78
		c0.59,13.47,1.2,27.38,9.79,34.79c3.93,3.4,8.98,5.06,15.38,5.06c1.38,0,2.83-0.07,4.36-0.24c33.94-3.51,91.52-69.59,102.23-98.26
		c0.17-0.45,0.32-0.89,0.48-1.34c0.21-0.61,0.41-1.23,0.59-1.85c0.14-0.48,0.28-0.94,0.41-1.42c0.27-0.92,0.49-1.86,0.71-2.79
		c0.08-0.37,0.16-0.73,0.24-1.09c0.45-2.23,0.79-4.47,1-6.73c0.07-0.68,0.13-1.37,0.17-2.06c0.03-0.38,0.06-0.76,0.07-1.14
		c0.11-2.04,0.13-4.09,0.07-6.13c-0.03-0.75-0.06-1.51-0.1-2.27c-0.04-0.75-0.1-1.49-0.17-2.26c-0.06-0.75-0.13-1.48-0.21-2.24
		c-0.08-0.73-0.18-1.48-0.28-2.21c-0.27-2.02-0.62-4.02-1.03-5.98c-0.1-0.51-0.21-1-0.32-1.51c-0.24-1.13-0.52-2.24-0.82-3.36
		c-0.14-0.54-0.28-1.06-0.44-1.58c-0.11-0.44-0.24-0.86-0.37-1.28c-0.2-0.66-0.39-1.33-0.61-1.96c-0.2-0.63-0.42-1.28-0.65-1.92
		c-0.2-0.58-0.41-1.16-0.62-1.71c-0.01-0.06-0.03-0.11-0.06-0.16c-0.21-0.58-0.44-1.16-0.66-1.72c-0.24-0.62-0.49-1.24-0.76-1.83
		c-0.25-0.58-0.51-1.14-0.75-1.69c-0.28-0.61-0.56-1.21-0.86-1.79c-0.2-0.41-0.41-0.8-0.61-1.2c-0.21-0.42-0.42-0.83-0.66-1.24
		c-0.18-0.35-0.38-0.69-0.58-1.03c-0.2-0.35-0.41-0.71-0.62-1.06c-0.21-0.35-0.42-0.69-0.63-1.02c-0.13-0.21-0.27-0.42-0.42-0.63
		c-0.13-0.21-0.27-0.41-0.41-0.61c-0.14-0.21-0.3-0.42-0.45-0.63c-0.2-0.28-0.41-0.56-0.62-0.83c0-0.01-0.01-0.01-0.01-0.03
		c2.48-1.35,4.94-2.78,7.36-4.26c1.61-0.99,3.2-2.02,4.77-3.06c0.44-0.28,0.87-0.58,1.31-0.89c0.34-0.24,0.68-0.48,1.02-0.72
		c1.55-1.07,3.07-2.19,4.57-3.34c13.18-10.03,24.51-22.38,33.41-36.1c2.23-3.44,4.29-6.91,6.27-10.55c2-3.88,3.47-7.6,4.89-11.38
		c0.49-1.33,0.97-2.67,1.44-3.99c0.23-0.66,0.47-1.31,0.69-1.97c0.34-1,0.68-1.99,1-2.99c0.34-0.99,0.65-1.97,0.96-2.98
		c0,0,0-0.01,0.01-0.01c0.27-0.1,0.55-0.21,0.87-0.32c0.16-0.07,0.32-0.13,0.49-0.18c0.86-0.31,1.86-0.65,3.02-0.99
		c2.14-0.62,4.78-1.33,7.81-1.78c3.03-0.45,6.49-0.68,10.08-0.28c3.58,0.41,7.29,1.49,10.65,3.55c0.41,0.28,0.83,0.56,1.24,0.83
		c0.41,0.3,0.79,0.62,1.2,0.93l0.14,0.13l0.06,0.04h0.01l0.01,0.01l0.01,0.01l0.27,0.24l0.68,0.62c0.52,0.45,0.69,0.73,1.03,1.09
		c1.27,1.41,2.45,3.23,3.3,5.18c1.76,3.95,2.41,8.71,2.62,13.99c0.07,1.33,0.11,2.68,0.21,4.15c0.13,1.48,0.21,3,0.79,4.99
		c0.38,1.02,0.78,2.24,2.13,3.5c1.26,1.21,3.33,1.8,4.55,1.71c1.37-0.03,2.35-0.31,3.24-0.61c0.48-0.14,0.82-0.31,1.24-0.48
		l0.68-0.3l0.47-0.23c5.49-2.78,10.01-6.5,14-10.67c1.99-2.09,3.81-4.32,5.41-6.66c1.59-2.37,2.96-4.84,4.1-7.39
		c1.13-2.57,1.93-5.22,2.52-7.85c0.03-0.18,0.07-0.37,0.08-0.55h0.01c0.23-0.06,0.45-0.13,0.69-0.21c0.07-0.03,0.16-0.06,0.24-0.08
		c0.28-0.1,0.58-0.21,0.86-0.34c0.32-0.13,0.65-0.28,0.97-0.45c2.57-1.34,5.46-3.6,8.21-6.91c2.75-3.29,5.3-7.69,6.77-12.86
		c0.72-2.59,1.14-5.36,1.23-8.16c0.1-2.81-0.23-5.65-0.83-8.39c-0.14-0.61-0.3-1.21-0.47-1.79c-0.07-0.28-0.16-0.56-0.24-0.83
		c-0.11-0.44-0.25-0.86-0.41-1.28c-0.08-0.3-0.18-0.59-0.3-0.87c0.18,0.17,0.38,0.35,0.58,0.56c0.2,0.18,0.41,0.39,0.62,0.61
		c1.96,1.92,4.16,4.24,7.47,6.54c0.82,0.58,1.78,1.14,2.81,1.66c0.56,0.25,1.04,0.49,1.83,0.75c0.35,0.13,0.78,0.25,0.93,0.3
		l0.32,0.08l0.17,0.04l0.08,0.01l0.3,0.07l0.08,0.01c0.47,0.07,0.94,0.11,1.42,0.16c0.54,0,1.11-0.06,1.66-0.13
		c0.58-0.1,1.2-0.31,1.76-0.54c0.56-0.25,1.11-0.61,1.62-0.96c0.45-0.38,0.87-0.8,1.27-1.23c0.31-0.41,0.61-0.85,0.87-1.28
		c0.23-0.41,0.41-0.8,0.59-1.23c0.18-0.41,0.27-0.76,0.39-1.14c0.44-1.49,0.59-2.85,0.63-4.1
		C632.06,453.72,631.99,452.54,631.89,451.34z M391.54,189.32c5.44-0.68,10.6-1.07,15.43-1.25c-5.33,1.49-10.56,3.26-15.71,5.2
		c-11.99,4.57-23.49,10.17-34.58,16.39c-11.08,6.22-21.81,12.99-32.31,20.04c-10.49,7.05-20.76,14.41-30.92,21.81
		c-4.81,3.48-9.6,7.01-14.4,10.45c-0.55-3.91-1.34-9.24-2.38-15.4C318.72,205.91,362.25,192.98,391.54,189.32z M202.37,471.12
		c-2.04,1.9-5.43,3.12-6.22,2.76c-0.01-0.03-1.76-2.24,0.96-12.37c2.81-10.43,13.18-13.07,24.49-15.03
		c5.95-1.03,10.25-1.79,11.21-5.89c0.96-4.06-2.92-6.9-4.78-8.26c-5.58-4.09-5.89-8.81-5.58-11.25c0.3-2.28,1.25-3.79,1.89-4.41
		c6.46,7.33,28.81,17.56,31.36,18.7c0,0,8.31,20.93,14.09,32.01c-4.78,0.8-10.77,2.86-14.12,8.07c-16.92-4.17-25.45,4.7-28.05,10.83
		c-4.67,4.58-6.92,11.63-6.2,19.14c-1.2-0.04-2.41-0.06-3.62-0.06c-1.3,0-2.59,0.03-3.89,0.07c-0.08-0.07-0.17-0.14-0.27-0.21
		c-0.34-0.23-0.51-0.55-0.79-0.87c-0.32-0.31-0.44-0.76-0.69-1.2c-0.24-0.44-0.28-1-0.47-1.55c-0.01-0.58-0.16-1.2-0.08-1.83
		c0.03-0.65,0.06-1.31,0.2-1.97c0.1-0.68,0.3-1.33,0.47-1.96c0.37-1.28,0.85-2.47,1.31-3.47c0.87-1.88,1.66-3.1,1.76-3.24
		c-0.14,0.1-1.31,0.97-2.85,2.48c-0.82,0.82-1.72,1.82-2.61,3c-0.44,0.61-0.9,1.24-1.28,1.95c-0.35,0.55-0.65,1.14-0.92,1.76
		c-0.8,0.06-1.41-0.06-1.61-0.3c-1.42-1.66-0.55-7.66,2.62-17.78c1.54-4.94,2.47-7.91-0.62-9.86
		C206.67,469.47,204.43,469.2,202.37,471.12z M300.42,516.13c-6.26-1.73-12.93-1.09-17.98-0.37c1.35-1.06,3.01-2.54,4.55-2.67
		c3.84-0.3,9.07-0.43,13.57,0.27C300.53,513.85,300.42,515.64,300.42,516.13z M301.67,525.75c0.89,3.37,2.12,6.36,3.38,8.97
		c0.1,0.2,0.2,0.38,0.3,0.58c-5.44-2.9-11.07-6.02-16.94-9.22c-0.63-0.35-1.28-0.69-1.93-1.04c0.35-0.44,0.69-0.9,0.99-1.35
		C292.25,523.24,297.57,523.37,301.67,525.75z M287.58,502.55c-6.28-11.3-14.58-19.85-23.32-24.08c2.82-2.31,7.29-2.92,9.97-3.09
		c4.71,7.97,10.07,15.53,16.17,22.04c-1.17,1.66-1.97,3.16-2.51,4.36C287.77,502.06,287.67,502.31,287.58,502.55z M257.28,487.46
		c-3-2.13-5.8-3.61-8.38-4.6c1.51,0.11,3.19,0.38,5.02,0.86c0.94,0.25,1.79,0.51,2.59,0.8l0.28,0.08
		c8.42,2.37,17.22,10.82,23.61,22.46c-1.75,0.89-3.44,2.12-5.01,3.62C273.23,503.85,268.27,495.25,257.28,487.46z M268.03,515.72
		c-1-0.47-1.99-0.89-3.02-1.31c-2.83-1.18-5.77-2.24-8.76-3.2c-8.31-2.64-17.12-4.46-26.24-5.3h-0.01
		c-0.93-6.08,0.85-11.82,4.72-14.59c4.29-3.07,10.56-1.99,17.67,3.05C263.1,501.96,266.8,510.18,268.03,515.72z M287.44,445.15
		c-5.02,3.5-8.14,10.21-9.25,19.9c-12.42-23.3-19.45-48.89-21.93-58.99l-0.28-2.71c-1.24-12.14-0.54-37.96,9.67-40.34
		c0.11,0.01,2.76,0.66,7.18,13.21c3.16,8.97,6.26,21.22,9.55,34.2c2.74,10.8,5.61,22.12,8.83,32.86
		C290.01,443.65,288.73,444.24,287.44,445.15z M345.5,641.21c6.77-13.89,4.81-35.07,3.06-46.41c5.67,0.41,11.37,0.63,17.1,0.61
		c8.21-0.04,16.47-0.61,24.68-1.9c2.06-0.32,4.16-0.76,6.25-1.14c2-0.44,3.92-0.92,5.89-1.38l2.45-0.69
		C399.36,604.08,383.53,632.48,345.5,641.21z M509.23,436.93c-0.42,7.25-1.49,14.64-2.89,22.01c-1.41,7.39-3.16,14.79-5.19,22.18
		c-2.04,7.36-4.33,14.74-6.99,21.93c-1.34,3.57-2.78,7.19-4.39,10.32c-1.79,3.29-3.77,6.63-5.85,9.84
		c-8.32,12.9-18.88,24.47-31.21,33.89c-6.13,4.75-12.76,8.88-19.63,12.56c-6.92,3.61-14.13,6.7-21.53,9.24
		c-1.85,0.66-3.72,1.21-5.58,1.82l-5.56,1.58c-1.95,0.47-3.93,0.96-5.85,1.38c-1.88,0.34-3.72,0.73-5.63,1.04
		c-7.67,1.23-15.5,1.78-23.32,1.83c-15.68,0.11-31.38-1.69-46.82-4.36c-15.45-2.68-30.63-6.3-45.74-9.96
		c-3.79-0.9-7.57-1.8-11.41-2.65c-3.84-0.82-7.66-1.64-11.77-2.13c-1.03-0.11-2.07-0.23-3.22-0.25c-1.18-0.06-2-0.03-2.96-0.04
		c-1.86-0.01-3.72-0.06-5.57-0.14c-3.71-0.16-7.37-0.42-10.96-0.9c-3.57-0.47-7.08-1.13-10.36-2.1c-3.27-0.97-6.36-2.28-8.63-4.05
		c-2.28-1.79-3.45-3.81-3.58-6.28c-0.03-0.3-0.01-0.62-0.01-0.94l0.04-0.69l0.01-0.41c0-0.27-0.01-0.55-0.03-0.79
		c-0.13-1.73-0.79-3.45-1.95-4.86c-0.56-0.69-1.27-1.31-2.04-1.79c-0.73-0.49-1.8-0.87-2.04-0.96l-2.44-0.93
		c-3.24-1.28-6.39-2.72-9.32-4.34c-2.9-1.62-5.65-3.47-7.69-5.51c-1.02-1.02-1.79-2.09-2.21-3.05c-0.47-0.97-0.48-1.72-0.37-2.54
		c0.16-0.76,0.56-1.54,1.42-2.45c0.82-0.87,1.93-1.75,3.19-2.52c2.48-1.55,5.41-2.79,8.42-3.78c3.02-0.99,6.15-1.73,9.28-2.33
		c6.3-1.16,12.68-1.65,18.95-1.62c12.54,0.04,24.66,2.07,35.69,5.65c2.75,0.9,5.44,1.89,8.07,2.96c1.3,0.54,2.62,1.11,3.85,1.68
		c1.31,0.61,2.59,1.23,3.89,1.83c5.09,2.47,10.04,5.08,14.86,7.67c9.63,5.2,18.82,10.32,27.81,14.67c9,4.31,17.78,7.85,26.27,10.24
		c8.46,2.43,16.64,3.55,24.04,3.65c7.4,0.1,14.02-0.85,19.6-2.21c5.6-1.31,10.08-3.33,13.45-5.36c3.37-2.04,5.65-4.05,7.12-5.49
		c1.44-1.45,2.09-2.33,2.09-2.33s-1.09,0.13-3.05,0.58c-1.97,0.39-4.81,1.11-8.38,2.04c-3.58,0.9-7.85,2.14-12.92,3.3
		c-0.41,0.08-0.83,0.18-1.26,0.25c1.31-1.79,2.62-3.93,3.82-6.4c0.85-1.75,1.61-3.68,2.3-5.75c0.65-2.09,1.2-4.33,1.58-6.71
		c0.69-4.75,0.69-10.11-0.66-15.53c-1.27-5.43-3.93-10.82-7.61-15.58c-0.42-0.62-0.94-1.17-1.42-1.75
		c-0.49-0.58-0.97-1.17-1.52-1.72l-1.64-1.69l-1.59-1.48l-0.8-0.75l-0.96-0.78l-1.79-1.42c-1.2-0.94-2.35-1.96-3.69-2.76
		c-1.3-0.86-2.59-1.72-3.91-2.58c-1.4-0.73-2.79-1.47-4.19-2.2c-0.35-0.18-0.71-0.38-1.06-0.55l-1.11-0.45l-2.21-0.9
		c-0.76-0.28-1.47-0.63-2.26-0.85l-2.33-0.66c-6.19-1.73-12.89-2.23-19.3-0.94c-6.42,1.26-12.44,4.36-17.01,8.71
		c-1.23,1-2.17,2.26-3.17,3.44c-0.8,0.86-2.83,4.08-2.83,4.08c-0.35,0.59-0.8,1.24-1.03,1.79c-0.28,0.61-0.56,1.2-0.85,1.8
		c-0.28,0.61-0.55,1.2-0.83,1.79l-0.11,0.28l-0.03,0.07l-0.04,0.13l-0.1,0.25l-0.17,0.52l-0.37,1.03c-0.06,0.17-0.11,0.35-0.16,0.52
		c-4.12-0.62-8.81-1.06-12.86-1c-0.16-0.32-0.32-0.65-0.49-0.96c0.38-0.14,0.83-0.32,1.34-0.54c1.9-0.82,4.55-2.16,7.61-4.24
		c3.07-2.06,6.43-5.12,10.82-8.09c4.34-3,9.52-6.25,15.65-8.84c6.12-2.58,13.21-4.5,20.76-3.58c7.71,0.92,16.09,4.13,24.85,8.12
		c8.83,3.98,17.99,8.98,28.7,13.1c5.37,1.97,11.2,3.86,17.99,3.85c1.68-0.01,3.43-0.18,5.18-0.58c0.9-0.21,1.66-0.39,2.69-0.78
		l1.03-0.38l0.52-0.2l0.63-0.28c0.86-0.39,1.72-0.79,2.44-1.23c0.78-0.41,1.51-0.89,2.24-1.38c1.45-0.99,2.79-2.13,4.05-3.33
		c2.5-2.47,4.54-5.26,6.25-8.19c5.15-6.64,8.53-16.3,9.12-27.36c0-0.01,0-0.01,0-0.03c0.07-0.32,0.13-0.65,0.2-0.97
		c0.65-3.24,1.23-6.5,1.8-9.77c0.28-1.62,0.58-3.26,0.86-4.89l0.44-2.45l0.21-1.16c0.08-0.38,0.17-0.86,0.24-1.18
		c1.25-5.61,4.23-11.34,8.16-16.27c3.95-4.95,8.91-9.29,14.52-12.39c5.6-3.07,11.94-4.86,17.95-4.15c1.51,0.17,2.98,0.52,4.4,1
		c0.71,0.23,1.4,0.52,2.09,0.83c0.34,0.17,0.69,0.31,1.02,0.49l0.49,0.27l0.01,0.01c0.01,0.01,0.03,0.01,0.03,0.01
		c0.01,0.01,0.03,0.01,0.04,0.03l0.3,0.18c1.88,1.13,3.37,3.5,4.36,6.46c0.99,2.95,1.48,6.36,1.72,9.81
		C509.47,429.71,509.44,433.3,509.23,436.93z M373.12,526.5c-3.53-11.82-12.79-22.05-26.79-29.61c-8.86-4.77-16.41-6.2-22.55-6.01
		c1.95-0.94,4.05-1.66,6.23-2.14c5.16-1.14,10.76-0.87,16.13,0.54l2.02,0.52c0.69,0.17,1.33,0.48,1.97,0.72l1.97,0.75l0.97,0.37
		c0.32,0.16,0.63,0.32,0.94,0.48c1.27,0.63,2.52,1.27,3.76,1.89c1.2,0.76,2.4,1.51,3.58,2.26c1.21,0.71,2.28,1.64,3.4,2.47
		l1.66,1.27l0.42,0.32l0.2,0.16l0.11,0.08l0.04,0.04l0.03,0.01l0.78,0.69l1.61,1.44l1.37,1.38c0.47,0.44,0.9,0.96,1.34,1.45
		c0.42,0.51,0.9,0.97,1.28,1.51c3.27,4.09,5.61,8.64,6.78,13.26c1.24,4.6,1.34,9.19,0.82,13.34c-0.3,2.09-0.75,4.05-1.28,5.89
		c-0.56,1.83-1.21,3.54-1.93,5.1c-1.44,3.12-3.09,5.63-4.61,7.52c-0.68,0.86-1.34,1.58-1.95,2.2c-0.06,0.01-0.13,0.01-0.2,0.01
		C375.15,544.76,375.79,535.39,373.12,526.5z M342.31,504.33c11.99,6.47,19.84,14.96,22.7,24.59c2.38,7.98,1.34,16.61-3.12,25.68
		c-6.53-0.3-13.71-1.55-21.31-3.82c-6.2-1.85-12.68-4.43-19.39-7.54c-0.16-0.16-0.32-0.32-0.51-0.52c-0.89-0.93-2.17-2.35-3.67-4.3
		c-1.48-1.93-3.16-4.39-4.71-7.37c-1.54-2.98-2.95-6.49-3.65-10.42c-0.69-3.92-0.62-8.25,0.68-12.59l0.27-0.82l0.13-0.41l0.07-0.2
		l0.01-0.07c0-0.01,0.01-0.03,0.01-0.04v-0.01l0.03-0.03c0-0.01,0-0.01,0.01-0.02c0.89-2,2.22-3.81,4-5.07
		C318.52,498.06,327.38,496.28,342.31,504.33z M416.31,495.56c-0.07,0.01-0.16,0.01-0.23,0.01c-4.82,0.08-10.01-1.4-14.92-3.19
		c-9.9-3.71-19.16-8.63-28.26-12.66c-3.2-1.42-6.4-2.78-9.6-3.98c-1.16-2.47-18.6-40.12-23.92-73.92
		c-3.93-25.02,2.24-53.44,14.69-67.6c5.4-6.13,11.51-9.14,18.37-8.94c20.95,0.61,52.08,49.62,65.19,96.83
		c-3.95-3.57-8.59-5.58-13.59-5.58c-14.83,0-26.44,17.73-26.44,40.36C397.61,475.39,405.37,490.64,416.31,495.56z M622.05,455.54
		c-0.52-0.24-1.07-0.51-1.64-0.87c-2.28-1.44-4.51-3.45-6.57-5.22c-2.09-1.8-3.99-3.5-6.13-4.82c-1.07-0.65-2.23-1.24-3.62-1.58
		c-1.03-0.27-2.24-0.28-3.3-0.06c-2.13-3.48-4.48-6.54-7.01-8.8c-0.75-0.68-1.47-1.31-2.24-1.83c-0.72-0.56-1.47-1.03-2.14-1.47
		c-1.42-0.82-2.72-1.42-3.82-1.8c-2.23-0.78-3.58-0.75-3.58-0.75s0.27,0.2,0.72,0.59c0.47,0.38,1.1,1,1.88,1.73
		c0.75,0.8,1.66,1.72,2.58,2.88c0.48,0.56,0.99,1.16,1.45,1.82c0.49,0.66,1.02,1.34,1.51,2.09c1.03,1.45,2.07,3.07,3.1,4.82
		c1.06,1.75,2.04,3.67,2.96,5.71c0.51,0.99,0.87,2.09,1.31,3.16c0.45,1.06,0.8,2.17,1.17,3.3c0.83,2.24,1.41,4.51,1.72,6.61
		c0.66,4.4,0.32,8.81-0.96,12.68c-1.23,3.88-3.29,7.18-5.34,9.69c-1.31,1.58-2.65,2.82-3.79,3.71c-0.37-4.2-1.54-8.08-3.02-11.42
		c-1.79-4.03-4.12-7.29-6.37-9.91c-0.58-0.65-1.14-1.28-1.68-1.89c-0.55-0.58-1.1-1.13-1.65-1.64c-0.54-0.51-1.06-1-1.55-1.47
		c-0.54-0.44-1.03-0.85-1.49-1.24c-0.97-0.76-1.8-1.47-2.59-2.02c-0.79-0.52-1.45-0.97-2-1.34c-1.1-0.71-1.69-1.07-1.69-1.07
		s0.41,0.56,1.2,1.61c0.79,1.03,1.99,2.5,3.37,4.44c0.37,0.47,0.75,0.97,1.14,1.49c0.37,0.54,0.75,1.1,1.14,1.69
		c0.41,0.59,0.82,1.18,1.26,1.82c0.39,0.65,0.8,1.31,1.23,2c1.66,2.78,3.43,5.94,4.71,9.56c1.3,3.6,2.31,7.63,2.16,11.92
		c-0.01,2.14-0.37,4.31-0.86,6.5c-0.59,2.17-1.35,4.34-2.4,6.46c-2.09,4.23-5.06,8.24-8.66,11.77c-3.57,3.51-7.8,6.7-12.2,8.73
		c-0.45,0.23-0.97,0.42-1.4,0.55c-0.13-0.68-0.21-1.64-0.25-2.61c-0.06-1.24-0.07-2.61-0.11-3.98c-0.13-5.49-0.62-11.51-2.99-17.05
		c-1.18-2.78-2.74-5.29-4.75-7.59c-0.51-0.56-1.1-1.24-1.51-1.59l-0.66-0.62l-0.34-0.32l-0.21-0.2l-0.11-0.08l-0.2-0.16
		c-0.55-0.44-1.09-0.9-1.64-1.31c-0.58-0.39-1.14-0.79-1.71-1.17c-4.65-2.98-9.76-4.34-14.33-4.85c-4.6-0.49-8.76-0.2-12.32,0.35
		c-3.06,0.47-5.71,1.1-7.94,1.76c0.07-0.23,0.13-0.47,0.2-0.69c2.09-7.61,3.88-15.24,5.33-22.91c1.45-7.69,2.57-15.4,3.02-23.21
		c0.21-3.92,0.27-7.85,0-11.84c-0.3-3.98-0.83-8.02-2.2-12.11c-0.69-2.04-1.59-4.1-2.9-6.08c-0.66-0.97-1.41-1.93-2.28-2.82
		c-0.48-0.45-0.85-0.85-1.47-1.31l-0.87-0.66c-0.25-0.2-0.39-0.27-0.61-0.41l-0.3-0.18c-0.06-0.03-0.42-0.27-0.51-0.3l-0.72-0.38
		c-0.47-0.27-0.96-0.48-1.44-0.72c-0.99-0.45-1.97-0.85-3-1.18c-2.03-0.69-4.13-1.17-6.25-1.41c-4.23-0.49-8.43-0.11-12.37,0.86
		c-3.95,0.96-7.64,2.5-11.06,4.37c-6.81,3.78-12.59,8.87-17.25,14.74c-2.76,3.53-5.18,7.3-7.01,11.39
		c-11.87-51.58-47.35-111.75-75.48-112.57c-9.28-0.27-17.92,3.82-24.96,11.82c-13.97,15.88-21,47.21-16.71,74.5
		c4.3,27.31,15.82,56.16,21.49,69.24c-2.3-0.55-4.6-0.96-6.91-1.23c-0.59-0.06-1.26-0.13-1.76-0.16l-0.79-0.04
		c-0.37-0.04-0.59-0.03-0.9-0.03c-1.17-0.01-2.31-0.04-3.44,0.04c-2.26,0.1-4.41,0.47-6.49,0.87c-4.15,0.85-7.9,2.17-11.31,3.64
		c-2.04,0.89-3.98,1.82-5.8,2.79c-10.58-14.79-17.96-43.94-24.54-69.94c-8.62-34.01-14.3-56.48-26.83-53.56
		c-10.05,2.34-14.23,13.45-15.82,24.59c-0.54-2.23-1.09-4.64-1.65-7.25c-4.86-22.98,1.27-55.4,16.2-61.21
		c14.85-5.78,30.4,14.82,30.56,15.02l2.04-1.52c4.99-2.21,16.09-7.42,23.08-10.72c-0.03,0.27-0.06,0.54-0.07,0.79
		c-0.16,2.09-0.18,3.72-0.16,4.85c0.04,1.13,0.11,1.73,0.11,1.73s0.32-0.51,0.93-1.45c0.59-0.94,2.62-4.48,2.65-4.69
		c2.63-4.71,6.41-11.55,7.61-13.89c0.76-1.47,1.58-3,2.41-4.6c0.86-1.57,1.76-3.17,2.68-4.84c1.89-3.27,3.95-6.66,6.25-10
		c2.3-3.33,4.86-6.61,7.83-9.5c2.96-2.89,6.32-5.37,9.98-7.04c0.92-0.42,1.85-0.78,2.79-1.1c0.48-0.2,0.89-0.3,1.34-0.45
		c0.45-0.14,1.07-0.28,1.61-0.42l1.37-0.3c0.49-0.07,0.97-0.17,1.47-0.23c0.97-0.13,1.95-0.21,2.92-0.23
		c3.88-0.08,7.67,0.8,11.08,2.41c3.43,1.61,6.5,3.85,9.19,6.3c2.71,2.44,5.05,5.08,7.09,7.64c2.04,2.57,3.79,5.05,5.26,7.33
		c1.49,2.26,2.85,4.23,4.05,5.84c0.34,0.45,0.66,0.89,0.96,1.28l0.01,0.17c0,0,0.04,0,0.13,0c0.73,0.93,1.35,1.69,1.85,2.27
		c0.72,0.86,1.16,1.31,1.16,1.31s0.07-0.63,0-1.76c-0.03-0.51-0.07-1.11-0.17-1.8c0.96,0.01,2.13,0.01,3.5,0.03
		c2.06-0.03,4.54,0.13,7.39,0.28c1.42,0.1,2.95,0.1,4.53,0.28c1.58,0.17,3.24,0.35,4.99,0.54c1.75,0.14,3.54,0.44,5.39,0.75
		c0.93,0.16,1.86,0.31,2.82,0.47c0.96,0.14,1.93,0.31,2.9,0.56c1.93,0.44,3.93,0.87,5.96,1.34c2,0.56,4.05,1.16,6.13,1.75
		c2.04,0.71,4.1,1.44,6.2,2.17c2.04,0.86,4.12,1.75,6.19,2.62c2.02,1.03,4.1,1.96,6.09,3.07c1.96,1.17,4.02,2.21,5.89,3.54
		l2.88,1.89l2.75,2.06c1.86,1.33,3.55,2.86,5.32,4.29c3.37,3,6.57,6.12,9.36,9.43c2.85,3.26,5.33,6.64,7.54,9.96
		c2.26,3.29,4.1,6.59,5.77,9.65c3.22,6.19,5.32,11.65,6.56,15.51c0.16,0.47,0.3,0.9,0.42,1.31c-0.69-0.2-1.4-0.38-2.13-0.54
		c-0.37-0.08-0.83-0.18-1.13-0.23l-1.17-0.35c-0.8-0.21-1.61-0.41-2.47-0.54c0.47,0.73,0.97,1.38,1.48,2.03l0.8,0.93
		c0.37,0.39,0.62,0.59,0.94,0.89c1.27,1.07,2.59,2.1,3.99,3.03c16,7.53,35.43,3.05,42.74,1.12c0.53-0.14,1.08-0.28,1.64-0.43
		c3.75-1.03,8.12-2.23,12.8-3.62c1.44-0.42,2.89-0.86,4.4-1.35c-0.41,1.44-0.9,2.9-1.44,4.31c-0.83,2.24-1.78,4.43-2.78,6.47
		c-2,4.13-4.24,7.76-6.4,10.52c-2.16,2.79-4.23,4.67-5.7,5.68c-0.73,0.52-1.33,0.85-1.72,1.04c-0.39,0.18-0.61,0.28-0.61,0.28
		s-4.17,1.18-5.91,1.57c-2,0.44-3.55,0.97-4.6,1.34c-1.06,0.41-1.59,0.68-1.59,0.68s0.56,0.21,1.62,0.56
		c1.06,0.31,2.58,0.82,4.5,1.33c2.5,0.68,5.64,1.42,9.29,2.21l0.04,0.08c0,0,0.04-0.01,0.11-0.06c1.92,0.41,3.98,0.83,6.16,1.27
		c3.17,0.62,6.6,1.33,10.11,2.35c3.5,1.04,7.09,2.35,10.58,4.06c3.47,1.69,6.81,3.81,9.72,6.33c0.76,0.61,1.38,1.33,2.09,1.99
		c0.63,0.72,1.27,1.4,1.89,2.17c0.71,0.89,1.4,1.76,1.97,2.57c0.62,0.8,1.21,1.69,1.83,2.55c2.35,3.51,4.57,7.12,6.37,10.84
		c1.83,3.71,3.29,7.5,4.33,11.15c0.51,1.82,0.9,3.62,1.1,5.27C622.12,453.52,622.13,454.71,622.05,455.54z"/>
</g>
</svg>
